<svg xmlns="http://www.w3.org/2000/svg" version="1.1" xmlns:xlink="http://www.w3.org/1999/xlink" xmlns:svgjs="http://svgjs.dev/svgjs" width="1440" height="818" preserveAspectRatio="none" viewBox="0 0 1440 818"><g mask="url(&quot;#SvgjsMask3993&quot;)" fill="none"><rect width="1440" height="818" x="0" y="0" fill="#0e2a47"></rect><path d="M109.04 702.67L196.51 753.17L196.51 854.17L109.04 904.67L21.57 854.17L21.57 753.17zM196.51 -54.83L283.98 -4.33L283.98 96.67L196.51 147.17L109.04 96.67L109.04 -4.33zM808.81 96.67L896.28 147.17L896.28 248.17L808.81 298.67L721.34 248.17L721.34 147.17zM808.81 702.67L896.28 753.17L896.28 854.17L808.81 904.67L721.34 854.17L721.34 753.17zM1246.16 -54.83L1333.64 -4.33L1333.64 96.67L1246.16 147.17L1158.69 96.67L1158.69 -4.33z" stroke="url(&quot;#SvgjsLinearGradient3994&quot;)" stroke-width="2"></path><path d="M98.94 702.67 a10.1 10.1 0 1 0 20.2 0 a10.1 10.1 0 1 0 -20.2 0zM186.41 753.17 a10.1 10.1 0 1 0 20.2 0 a10.1 10.1 0 1 0 -20.2 0zM186.41 854.17 a10.1 10.1 0 1 0 20.2 0 a10.1 10.1 0 1 0 -20.2 0zM98.94 904.67 a10.1 10.1 0 1 0 20.2 0 a10.1 10.1 0 1 0 -20.2 0zM11.47 854.17 a10.1 10.1 0 1 0 20.2 0 a10.1 10.1 0 1 0 -20.2 0zM11.47 753.17 a10.1 10.1 0 1 0 20.2 0 a10.1 10.1 0 1 0 -20.2 0zM186.41 -54.83 a10.1 10.1 0 1 0 20.2 0 a10.1 10.1 0 1 0 -20.2 0zM273.88 -4.33 a10.1 10.1 0 1 0 20.2 0 a10.1 10.1 0 1 0 -20.2 0zM273.88 96.67 a10.1 10.1 0 1 0 20.2 0 a10.1 10.1 0 1 0 -20.2 0zM186.41 147.17 a10.1 10.1 0 1 0 20.2 0 a10.1 10.1 0 1 0 -20.2 0zM98.94 96.67 a10.1 10.1 0 1 0 20.2 0 a10.1 10.1 0 1 0 -20.2 0zM98.94 -4.33 a10.1 10.1 0 1 0 20.2 0 a10.1 10.1 0 1 0 -20.2 0zM798.71 96.67 a10.1 10.1 0 1 0 20.2 0 a10.1 10.1 0 1 0 -20.2 0zM886.18 147.17 a10.1 10.1 0 1 0 20.2 0 a10.1 10.1 0 1 0 -20.2 0zM886.18 248.17 a10.1 10.1 0 1 0 20.2 0 a10.1 10.1 0 1 0 -20.2 0zM798.71 298.67 a10.1 10.1 0 1 0 20.2 0 a10.1 10.1 0 1 0 -20.2 0zM711.24 248.17 a10.1 10.1 0 1 0 20.2 0 a10.1 10.1 0 1 0 -20.2 0zM711.24 147.17 a10.1 10.1 0 1 0 20.2 0 a10.1 10.1 0 1 0 -20.2 0zM798.71 702.67 a10.1 10.1 0 1 0 20.2 0 a10.1 10.1 0 1 0 -20.2 0zM886.18 753.17 a10.1 10.1 0 1 0 20.2 0 a10.1 10.1 0 1 0 -20.2 0zM886.18 854.17 a10.1 10.1 0 1 0 20.2 0 a10.1 10.1 0 1 0 -20.2 0zM798.71 904.67 a10.1 10.1 0 1 0 20.2 0 a10.1 10.1 0 1 0 -20.2 0zM711.24 854.17 a10.1 10.1 0 1 0 20.2 0 a10.1 10.1 0 1 0 -20.2 0zM711.24 753.17 a10.1 10.1 0 1 0 20.2 0 a10.1 10.1 0 1 0 -20.2 0zM1236.06 -54.83 a10.1 10.1 0 1 0 20.2 0 a10.1 10.1 0 1 0 -20.2 0zM1323.54 -4.33 a10.1 10.1 0 1 0 20.2 0 a10.1 10.1 0 1 0 -20.2 0zM1323.54 96.67 a10.1 10.1 0 1 0 20.2 0 a10.1 10.1 0 1 0 -20.2 0zM1236.06 147.17 a10.1 10.1 0 1 0 20.2 0 a10.1 10.1 0 1 0 -20.2 0zM1148.59 96.67 a10.1 10.1 0 1 0 20.2 0 a10.1 10.1 0 1 0 -20.2 0zM1148.59 -4.33 a10.1 10.1 0 1 0 20.2 0 a10.1 10.1 0 1 0 -20.2 0z" fill="url(&quot;#SvgjsLinearGradient3994&quot;)"></path><path d="M51.45 182.73L127.66 226.73L127.66 314.73L51.45 358.73L-24.76 314.73L-24.76 226.73zM51.45 446.73L127.66 490.73L127.66 578.73L51.45 622.73L-24.76 578.73L-24.76 490.73zM280.09 314.73L356.3 358.73L356.3 446.73L280.09 490.73L203.87 446.73L203.87 358.73zM356.3 182.73L432.51 226.73L432.51 314.73L356.3 358.73L280.09 314.73L280.09 226.73zM432.51 314.73L508.72 358.73L508.72 446.73L432.51 490.73L356.3 446.73L356.3 358.73zM432.51 578.73L508.72 622.73L508.72 710.73L432.51 754.73L356.3 710.73L356.3 622.73zM356.3 710.73L432.51 754.73L432.51 842.73L356.3 886.73L280.09 842.73L280.09 754.73zM508.72 -81.27L584.94 -37.27L584.94 50.73L508.72 94.73L432.51 50.73L432.51 -37.27zM508.72 182.73L584.94 226.73L584.94 314.73L508.72 358.73L432.51 314.73L432.51 226.73zM661.15 -81.27L737.36 -37.27L737.36 50.73L661.15 94.73L584.94 50.73L584.94 -37.27zM737.36 314.73L813.57 358.73L813.57 446.73L737.36 490.73L661.15 446.73L661.15 358.73zM813.57 182.73L889.79 226.73L889.79 314.73L813.57 358.73L737.36 314.73L737.36 226.73zM889.79 314.73L966 358.73L966 446.73L889.79 490.73L813.57 446.73L813.57 358.73zM813.57 710.73L889.79 754.73L889.79 842.73L813.57 886.73L737.36 842.73L737.36 754.73zM966 -81.27L1042.21 -37.27L1042.21 50.73L966 94.73L889.79 50.73L889.79 -37.27zM1042.21 314.73L1118.42 358.73L1118.42 446.73L1042.21 490.73L966 446.73L966 358.73zM1194.64 314.73L1270.85 358.73L1270.85 446.73L1194.64 490.73L1118.42 446.73L1118.42 358.73zM1118.42 446.73L1194.64 490.73L1194.64 578.73L1118.42 622.73L1042.21 578.73L1042.21 490.73zM1194.64 578.73L1270.85 622.73L1270.85 710.73L1194.64 754.73L1118.42 710.73L1118.42 622.73zM1118.42 710.73L1194.64 754.73L1194.64 842.73L1118.42 886.73L1042.21 842.73L1042.21 754.73zM1270.85 182.73L1347.06 226.73L1347.06 314.73L1270.85 358.73L1194.64 314.73L1194.64 226.73zM1270.85 446.73L1347.06 490.73L1347.06 578.73L1270.85 622.73L1194.64 578.73L1194.64 490.73zM1423.27 182.73L1499.49 226.73L1499.49 314.73L1423.27 358.73L1347.06 314.73L1347.06 226.73zM1423.27 710.73L1499.49 754.73L1499.49 842.73L1423.27 886.73L1347.06 842.73L1347.06 754.73z" stroke="url(&quot;#SvgjsLinearGradient3995&quot;)" stroke-width="2"></path></g><defs><mask id="SvgjsMask3993"><rect width="1440" height="818" fill="#ffffff"></rect></mask><linearGradient x1="1440" y1="409" x2="0" y2="409" gradientUnits="userSpaceOnUse" id="SvgjsLinearGradient3994"><stop stop-color="rgba(158, 0, 129, 1)" offset="0"></stop><stop stop-color="rgba(24, 35, 210, 1)" offset="1"></stop></linearGradient><linearGradient x1="1284.48" y1="-155.5018" x2="155.52" y2="973.5018000000001" gradientUnits="userSpaceOnUse" id="SvgjsLinearGradient3995"><stop stop-color="#0e2a47" offset="0"></stop><stop stop-color="rgba(0, 94, 255, 1)" offset="1"></stop></linearGradient></defs></svg>